<svg xmlns="http://www.w3.org/2000/svg" viewBox="0 0 680 680" width="32" height="32">
  <defs>
    <linearGradient id="gi" x1="0" y1="1" x2="1" y2="0">
      <stop offset="0%"     stop-color="#2651CC"/>
      <stop offset="15%" stop-color="#2651CC"/>
      <stop offset="100%"   stop-color="#4FC3F7"/>
    </linearGradient>
    <clipPath id="ci"><rect x="0" y="0" width="680" height="680" rx="148" ry="148"/></clipPath>
  </defs>
  <g clip-path="url(#ci)">
    <rect x="0" y="0" width="680" height="680" fill="url(#gi)"/>
    <line x1="350.0" y1="340.0" x2="1040.0" y2="340.0" stroke="white" stroke-width="0.8" opacity="0.1" stroke-dasharray="6 8"/>
<line x1="348.7" y1="345.0" x2="946.2" y2="690.0" stroke="white" stroke-width="0.8" opacity="0.1" stroke-dasharray="6 8"/>
<line x1="345.0" y1="348.7" x2="690.0" y2="946.2" stroke="white" stroke-width="0.8" opacity="0.1" stroke-dasharray="6 8"/>
<line x1="340.0" y1="350.0" x2="340.0" y2="1040.0" stroke="white" stroke-width="0.8" opacity="0.1" stroke-dasharray="6 8"/>
<line x1="335.0" y1="348.7" x2="-10.0" y2="946.2" stroke="white" stroke-width="0.8" opacity="0.1" stroke-dasharray="6 8"/>
<line x1="331.3" y1="345.0" x2="-266.2" y2="690.0" stroke="white" stroke-width="0.8" opacity="0.1" stroke-dasharray="6 8"/>
<line x1="330.0" y1="340.0" x2="-360.0" y2="340.0" stroke="white" stroke-width="0.8" opacity="0.1" stroke-dasharray="6 8"/>
<line x1="331.3" y1="335.0" x2="-266.2" y2="-10.0" stroke="white" stroke-width="0.8" opacity="0.1" stroke-dasharray="6 8"/>
<line x1="335.0" y1="331.3" x2="-10.0" y2="-266.2" stroke="white" stroke-width="0.8" opacity="0.1" stroke-dasharray="6 8"/>
<line x1="340.0" y1="330.0" x2="340.0" y2="-360.0" stroke="white" stroke-width="0.8" opacity="0.1" stroke-dasharray="6 8"/>
<line x1="345.0" y1="331.3" x2="690.0" y2="-266.2" stroke="white" stroke-width="0.8" opacity="0.1" stroke-dasharray="6 8"/>
<line x1="348.7" y1="335.0" x2="946.2" y2="-10.0" stroke="white" stroke-width="0.8" opacity="0.1" stroke-dasharray="6 8"/>
<circle cx="340" cy="340" r="120" fill="none" stroke="white" stroke-width="0.8" opacity="0.1" stroke-dasharray="5 8"/>
<circle cx="340" cy="340" r="220" fill="none" stroke="white" stroke-width="0.8" opacity="0.1" stroke-dasharray="5 8"/>
<circle cx="340" cy="340" r="320" fill="none" stroke="white" stroke-width="0.8" opacity="0.1" stroke-dasharray="5 8"/>

    <path fill="none" stroke="white" stroke-width="26" stroke-linecap="round" opacity="0.30" d="M310.6,302.8 L311.1,301.9 L311.6,300.9 L312.3,300.0 L313.1,299.2 L313.9,298.3 L314.9,297.6 L315.9,296.9 L317.0,296.3 L318.2,295.8 L319.5,295.4 L320.8,295.0 L322.2,294.8 L323.7,294.7 L325.2,294.6 L326.7,294.7 L328.2,294.9 L329.8,295.3 L331.4,295.7 L333.0,296.3 L334.5,297.0 L336.1,297.8 L337.7,298.8 L339.2,299.9 L340.6,301.1 L342.1,302.4 L343.4,303.8 L344.7,305.4 L345.9,307.1 L347.1,308.9 L348.1,310.8 L349.0,312.8 L349.8,314.9 L350.5,317.2 L351.1,319.4 L351.6,321.8 L351.9,324.2 L352.0,326.7"/>
<path fill="none" stroke="white" stroke-width="26" stroke-linecap="round" opacity="0.39" d="M352.0,326.7 L352.0,329.3 L351.9,331.9 L351.6,334.5 L351.1,337.1 L350.5,339.8 L349.7,342.5 L348.7,345.1 L347.5,347.8 L346.2,350.4 L344.7,353.0 L343.0,355.5 L341.2,357.9 L339.2,360.3 L337.0,362.6 L334.6,364.8 L332.1,366.9 L329.5,368.9 L326.7,370.8 L323.7,372.5 L320.6,374.1 L317.4,375.5 L314.0,376.7 L310.6,377.8 L307.0,378.7 L303.4,379.4 L299.6,379.9 L295.8,380.2 L292.0,380.3 L288.1,380.2 L284.1,379.8 L280.1,379.2 L276.2,378.4 L272.2,377.4 L268.2,376.1 L264.3,374.6 L260.4,372.8 L256.5,370.8 L252.8,368.6"/>
<path fill="none" stroke="white" stroke-width="26" stroke-linecap="round" opacity="0.47" d="M252.8,368.6 L249.1,366.2 L245.5,363.5 L242.1,360.6 L238.7,357.5 L235.5,354.2 L232.5,350.6 L229.6,346.9 L226.9,342.9 L224.4,338.8 L222.1,334.5 L220.0,330.1 L218.2,325.5 L216.6,320.7 L215.2,315.8 L214.1,310.8 L213.2,305.7 L212.7,300.5 L212.4,295.3 L212.3,289.9 L212.6,284.6 L213.2,279.2 L214.1,273.8 L215.2,268.4 L216.7,263.0 L218.5,257.7 L220.6,252.4 L223.0,247.2 L225.7,242.0 L228.6,237.0 L231.9,232.2 L235.5,227.4 L239.3,222.8 L243.5,218.4 L247.9,214.2 L252.5,210.2 L257.4,206.4 L262.5,202.9"/>
<path fill="none" stroke="white" stroke-width="26" stroke-linecap="round" opacity="0.56" d="M262.5,202.9 L267.9,199.6 L273.5,196.6 L279.2,193.9 L285.2,191.4 L291.3,189.3 L297.6,187.5 L304.0,186.0 L310.6,184.8 L317.2,184.0 L324.0,183.6 L330.8,183.5 L337.6,183.7 L344.5,184.4 L351.3,185.4 L358.2,186.8 L365.0,188.5 L371.8,190.7 L378.5,193.2 L385.1,196.1 L391.6,199.3 L397.9,203.0 L404.1,207.0 L410.1,211.3 L415.9,216.0 L421.5,221.0 L426.8,226.4 L431.9,232.0 L436.7,238.0 L441.3,244.2 L445.5,250.8 L449.3,257.6 L452.9,264.6 L456.0,271.8 L458.8,279.3 L461.3,287.0 L463.3,294.8 L464.9,302.7 L466.1,310.8"/>
<path fill="none" stroke="white" stroke-width="26" stroke-linecap="round" opacity="0.65" d="M466.1,310.8 L466.9,319.0 L467.2,327.3 L467.1,335.6 L466.5,344.0 L465.5,352.3 L464.1,360.7 L462.2,369.0 L459.8,377.3 L457.0,385.4 L453.8,393.5 L450.1,401.4 L445.9,409.2 L441.4,416.7 L436.4,424.1 L431.0,431.2 L425.2,438.1 L419.0,444.7 L412.4,450.9 L405.5,456.9 L398.2,462.5 L390.6,467.8 L382.6,472.6 L374.4,477.1 L365.9,481.2 L357.2,484.8 L348.2,487.9 L339.1,490.6 L329.7,492.9 L320.2,494.6 L310.6,495.8 L300.9,496.6 L291.0,496.8 L281.2,496.5 L271.3,495.6 L261.4,494.3 L251.6,492.4 L241.8,490.0"/>
<path fill="none" stroke="white" stroke-width="26" stroke-linecap="round" opacity="0.74" d="M241.8,490.0 L232.1,487.0 L222.6,483.5 L213.2,479.6 L203.9,475.0 L194.9,470.0 L186.1,464.5 L177.6,458.5 L169.3,452.1 L161.4,445.1 L153.8,437.8 L146.6,430.0 L139.8,421.8 L133.3,413.2 L127.4,404.2 L121.8,394.9 L116.8,385.2 L112.2,375.3 L108.1,365.1 L104.6,354.6 L101.6,343.9 L99.2,333.0 L97.4,322.0 L96.1,310.8 L95.4,299.5 L95.3,288.2 L95.8,276.8 L96.9,265.4 L98.6,254.0 L101.0,242.7 L103.9,231.5 L107.4,220.4 L111.6,209.4 L116.3,198.7 L121.6,188.1 L127.5,177.8 L134.0,167.8 L141.0,158.1 L148.5,148.7"/>
<path fill="none" stroke="white" stroke-width="26" stroke-linecap="round" opacity="0.82" d="M148.5,148.7 L156.5,139.7 L165.1,131.1 L174.1,123.0 L183.6,115.3 L193.5,108.0 L203.8,101.3 L214.5,95.1 L225.6,89.5 L237.0,84.4 L248.7,79.9 L260.7,76.0 L272.9,72.7 L285.3,70.1 L297.9,68.1 L310.6,66.8 L323.4,66.2 L336.3,66.2 L349.2,66.9 L362.1,68.3 L375.0,70.4 L387.8,73.2 L400.5,76.6 L413.0,80.7 L425.4,85.5 L437.5,91.0 L449.4,97.1 L460.9,103.9 L472.2,111.3 L483.1,119.3 L493.6,127.9 L503.6,137.0 L513.2,146.7 L522.3,157.0 L530.9,167.8 L538.9,179.0 L546.4,190.7 L553.3,202.8"/>
<path fill="none" stroke="white" stroke-width="26" stroke-linecap="round" opacity="0.91" d="M553.3,202.8 L559.5,215.3 L565.1,228.1 L570.0,241.3 L574.3,254.8 L577.8,268.5 L580.6,282.4 L582.7,296.6 L584.1,310.8 L584.7,325.2 L584.5,339.6 L583.6,354.1 L582.0,368.5 L579.5,382.9 L576.3,397.2 L572.3,411.3 L567.6,425.3 L562.2,439.0 L556.0,452.5 L549.0,465.7 L541.4,478.5 L533.1,491.0 L524.1,503.0 L514.4,514.6 L504.1,525.8 L493.2,536.4 L481.7,546.4 L469.7,555.9 L457.2,564.7 L444.1,572.9 L430.6,580.4 L416.7,587.3 L402.4,593.4 L387.7,598.8 L372.8,603.4 L357.5,607.2 L342.1,610.2 L326.4,612.4 L310.6,613.8"/>

  </g>
</svg>