<svg xmlns="http://www.w3.org/2000/svg" width="1024" height="1024" viewBox="0 0 400 400"><defs>
    <linearGradient id="bg" x1="0" y1="0" x2="1" y2="1">
      <stop offset="0%" stop-color="#FF1F6E"></stop>
      <stop offset="100%" stop-color="#FF5030"></stop>
    </linearGradient>
  </defs><rect width="400" height="400" rx="72" fill="url(#bg)"></rect><rect x="70" y="58" width="68" height="284" rx="14" fill="white" opacity="0.95"></rect><rect x="82" y="108" width="44" height="7" rx="3.5" fill="#FF1F6E" opacity="0.55"></rect><rect x="82" y="122" width="44" height="7" rx="3.5" fill="#FF1F6E" opacity="0.38"></rect><rect x="146" y="74" width="62" height="268" rx="13" fill="white" opacity="0.72"></rect><rect x="157" y="122" width="40" height="6" rx="3" fill="#FF3D55" opacity="0.45"></rect><rect x="157" y="136" width="40" height="6" rx="3" fill="#FF3D55" opacity="0.3"></rect><rect x="216" y="88" width="56" height="254" rx="12" fill="white" opacity="0.48"></rect><rect x="226" y="136" width="36" height="6" rx="3" fill="#FF5030" opacity="0.45"></rect><rect x="226" y="149" width="36" height="6" rx="3" fill="#FF5030" opacity="0.3"></rect><rect x="280" y="100" width="50" height="242" rx="11" fill="white" opacity="0.26"></rect><rect x="289" y="148" width="32" height="5" rx="2.5" fill="#FF5030" opacity="0.35"></rect><rect x="289" y="160" width="32" height="5" rx="2.5" fill="#FF5030" opacity="0.22"></rect></svg>