<svg xmlns="http://www.w3.org/2000/svg" viewBox="0 0 1280 720">
  <defs><linearGradient id="gh" x1="0" y1="1" x2="1" y2="0">
      <stop offset="0%"     stop-color="#2651CC"/>
      <stop offset="15%" stop-color="#2651CC"/>
      <stop offset="100%"   stop-color="#4FC3F7"/>
    </linearGradient></defs>
  <rect x="0" y="0" width="1280" height="720" fill="url(#gh)"/>
  <line x1="0" y1="0" x2="0" y2="720" stroke="white" stroke-width="0.7" opacity="0.1"/>
<line x1="64" y1="0" x2="64" y2="720" stroke="white" stroke-width="0.7" opacity="0.1"/>
<line x1="128" y1="0" x2="128" y2="720" stroke="white" stroke-width="0.7" opacity="0.1"/>
<line x1="192" y1="0" x2="192" y2="720" stroke="white" stroke-width="0.7" opacity="0.1"/>
<line x1="256" y1="0" x2="256" y2="720" stroke="white" stroke-width="0.7" opacity="0.1"/>
<line x1="320" y1="0" x2="320" y2="720" stroke="white" stroke-width="0.7" opacity="0.1"/>
<line x1="384" y1="0" x2="384" y2="720" stroke="white" stroke-width="0.7" opacity="0.1"/>
<line x1="448" y1="0" x2="448" y2="720" stroke="white" stroke-width="0.7" opacity="0.1"/>
<line x1="512" y1="0" x2="512" y2="720" stroke="white" stroke-width="0.7" opacity="0.1"/>
<line x1="576" y1="0" x2="576" y2="720" stroke="white" stroke-width="0.7" opacity="0.1"/>
<line x1="640" y1="0" x2="640" y2="720" stroke="white" stroke-width="0.7" opacity="0.1"/>
<line x1="704" y1="0" x2="704" y2="720" stroke="white" stroke-width="0.7" opacity="0.1"/>
<line x1="768" y1="0" x2="768" y2="720" stroke="white" stroke-width="0.7" opacity="0.1"/>
<line x1="832" y1="0" x2="832" y2="720" stroke="white" stroke-width="0.7" opacity="0.1"/>
<line x1="896" y1="0" x2="896" y2="720" stroke="white" stroke-width="0.7" opacity="0.1"/>
<line x1="960" y1="0" x2="960" y2="720" stroke="white" stroke-width="0.7" opacity="0.1"/>
<line x1="1024" y1="0" x2="1024" y2="720" stroke="white" stroke-width="0.7" opacity="0.1"/>
<line x1="1088" y1="0" x2="1088" y2="720" stroke="white" stroke-width="0.7" opacity="0.1"/>
<line x1="1152" y1="0" x2="1152" y2="720" stroke="white" stroke-width="0.7" opacity="0.1"/>
<line x1="1216" y1="0" x2="1216" y2="720" stroke="white" stroke-width="0.7" opacity="0.1"/>
<line x1="1280" y1="0" x2="1280" y2="720" stroke="white" stroke-width="0.7" opacity="0.1"/>
<line x1="0" y1="0" x2="1280" y2="0" stroke="white" stroke-width="0.7" opacity="0.1"/>
<line x1="0" y1="64" x2="1280" y2="64" stroke="white" stroke-width="0.7" opacity="0.1"/>
<line x1="0" y1="128" x2="1280" y2="128" stroke="white" stroke-width="0.7" opacity="0.1"/>
<line x1="0" y1="192" x2="1280" y2="192" stroke="white" stroke-width="0.7" opacity="0.1"/>
<line x1="0" y1="256" x2="1280" y2="256" stroke="white" stroke-width="0.7" opacity="0.1"/>
<line x1="0" y1="320" x2="1280" y2="320" stroke="white" stroke-width="0.7" opacity="0.1"/>
<line x1="0" y1="384" x2="1280" y2="384" stroke="white" stroke-width="0.7" opacity="0.1"/>
<line x1="0" y1="448" x2="1280" y2="448" stroke="white" stroke-width="0.7" opacity="0.1"/>
<line x1="0" y1="512" x2="1280" y2="512" stroke="white" stroke-width="0.7" opacity="0.1"/>
<line x1="0" y1="576" x2="1280" y2="576" stroke="white" stroke-width="0.7" opacity="0.1"/>
<line x1="0" y1="640" x2="1280" y2="640" stroke="white" stroke-width="0.7" opacity="0.1"/>
<line x1="0" y1="704" x2="1280" y2="704" stroke="white" stroke-width="0.7" opacity="0.1"/>
<line x1="650.0" y1="360.0" x2="1340.0" y2="360.0" stroke="white" stroke-width="0.8" opacity="0.1" stroke-dasharray="6 8"/>
<line x1="648.7" y1="365.0" x2="1246.2" y2="710.0" stroke="white" stroke-width="0.8" opacity="0.1" stroke-dasharray="6 8"/>
<line x1="645.0" y1="368.7" x2="990.0" y2="966.2" stroke="white" stroke-width="0.8" opacity="0.1" stroke-dasharray="6 8"/>
<line x1="640.0" y1="370.0" x2="640.0" y2="1060.0" stroke="white" stroke-width="0.8" opacity="0.1" stroke-dasharray="6 8"/>
<line x1="635.0" y1="368.7" x2="290.0" y2="966.2" stroke="white" stroke-width="0.8" opacity="0.1" stroke-dasharray="6 8"/>
<line x1="631.3" y1="365.0" x2="33.8" y2="710.0" stroke="white" stroke-width="0.8" opacity="0.1" stroke-dasharray="6 8"/>
<line x1="630.0" y1="360.0" x2="-60.0" y2="360.0" stroke="white" stroke-width="0.8" opacity="0.1" stroke-dasharray="6 8"/>
<line x1="631.3" y1="355.0" x2="33.8" y2="10.0" stroke="white" stroke-width="0.8" opacity="0.1" stroke-dasharray="6 8"/>
<line x1="635.0" y1="351.3" x2="290.0" y2="-246.2" stroke="white" stroke-width="0.8" opacity="0.1" stroke-dasharray="6 8"/>
<line x1="640.0" y1="350.0" x2="640.0" y2="-340.0" stroke="white" stroke-width="0.8" opacity="0.1" stroke-dasharray="6 8"/>
<line x1="645.0" y1="351.3" x2="990.0" y2="-246.2" stroke="white" stroke-width="0.8" opacity="0.1" stroke-dasharray="6 8"/>
<line x1="648.7" y1="355.0" x2="1246.2" y2="10.0" stroke="white" stroke-width="0.8" opacity="0.1" stroke-dasharray="6 8"/>
<circle cx="640" cy="360" r="120" fill="none" stroke="white" stroke-width="0.8" opacity="0.1" stroke-dasharray="5 8"/>
<circle cx="640" cy="360" r="220" fill="none" stroke="white" stroke-width="0.8" opacity="0.1" stroke-dasharray="5 8"/>
<circle cx="640" cy="360" r="320" fill="none" stroke="white" stroke-width="0.8" opacity="0.1" stroke-dasharray="5 8"/>
<polyline points="90,20 40,20 40,70" fill="none" stroke="white" stroke-width="2" opacity="0.35" stroke-linecap="round"/>
<polyline points="1190,20 1240,20 1240,70" fill="none" stroke="white" stroke-width="2" opacity="0.35" stroke-linecap="round"/>
<polyline points="90,700 40,700 40,650" fill="none" stroke="white" stroke-width="2" opacity="0.35" stroke-linecap="round"/>
<polyline points="1190,700 1240,700 1240,650" fill="none" stroke="white" stroke-width="2" opacity="0.35" stroke-linecap="round"/>
<text x="1236" y="692" fill="white" opacity="0.3" font-size="13" font-family="monospace" text-anchor="end">AkashiContracts — Schema Management</text>
<text x="44" y="692" fill="white" opacity="0.25" font-size="13" font-family="monospace">v1.0</text>
<path fill="none" stroke="white" stroke-width="20" stroke-linecap="round" opacity="0.30" d="M610.6,322.8 L611.1,321.9 L611.6,320.9 L612.3,320.0 L613.1,319.2 L613.9,318.3 L614.9,317.6 L615.9,316.9 L617.0,316.3 L618.2,315.8 L619.5,315.4 L620.8,315.0 L622.2,314.8 L623.7,314.7 L625.2,314.6 L626.7,314.7 L628.2,314.9 L629.8,315.3 L631.4,315.7 L633.0,316.3 L634.5,317.0 L636.1,317.8 L637.7,318.8 L639.2,319.9 L640.6,321.1 L642.1,322.4 L643.4,323.8 L644.7,325.4 L645.9,327.1 L647.1,328.9 L648.1,330.8 L649.0,332.8 L649.8,334.9 L650.5,337.2 L651.1,339.4 L651.6,341.8 L651.9,344.2 L652.0,346.7"/>
<path fill="none" stroke="white" stroke-width="20" stroke-linecap="round" opacity="0.39" d="M652.0,346.7 L652.0,349.3 L651.9,351.9 L651.6,354.5 L651.1,357.1 L650.5,359.8 L649.7,362.5 L648.7,365.1 L647.5,367.8 L646.2,370.4 L644.7,373.0 L643.0,375.5 L641.2,377.9 L639.2,380.3 L637.0,382.6 L634.6,384.8 L632.1,386.9 L629.5,388.9 L626.7,390.8 L623.7,392.5 L620.6,394.1 L617.4,395.5 L614.0,396.7 L610.6,397.8 L607.0,398.7 L603.4,399.4 L599.6,399.9 L595.8,400.2 L592.0,400.3 L588.1,400.2 L584.1,399.8 L580.1,399.2 L576.2,398.4 L572.2,397.4 L568.2,396.1 L564.3,394.6 L560.4,392.8 L556.5,390.8 L552.8,388.6"/>
<path fill="none" stroke="white" stroke-width="20" stroke-linecap="round" opacity="0.47" d="M552.8,388.6 L549.1,386.2 L545.5,383.5 L542.1,380.6 L538.7,377.5 L535.5,374.2 L532.5,370.6 L529.6,366.9 L526.9,362.9 L524.4,358.8 L522.1,354.5 L520.0,350.1 L518.2,345.5 L516.6,340.7 L515.2,335.8 L514.1,330.8 L513.2,325.7 L512.7,320.5 L512.4,315.3 L512.3,309.9 L512.6,304.6 L513.2,299.2 L514.1,293.8 L515.2,288.4 L516.7,283.0 L518.5,277.7 L520.6,272.4 L523.0,267.2 L525.7,262.0 L528.6,257.0 L531.9,252.2 L535.5,247.4 L539.3,242.8 L543.5,238.4 L547.9,234.2 L552.5,230.2 L557.4,226.4 L562.5,222.9"/>
<path fill="none" stroke="white" stroke-width="20" stroke-linecap="round" opacity="0.56" d="M562.5,222.9 L567.9,219.6 L573.5,216.6 L579.2,213.9 L585.2,211.4 L591.3,209.3 L597.6,207.5 L604.0,206.0 L610.6,204.8 L617.2,204.0 L624.0,203.6 L630.8,203.5 L637.6,203.7 L644.5,204.4 L651.3,205.4 L658.2,206.8 L665.0,208.5 L671.8,210.7 L678.5,213.2 L685.1,216.1 L691.6,219.3 L697.9,223.0 L704.1,227.0 L710.1,231.3 L715.9,236.0 L721.5,241.0 L726.8,246.4 L731.9,252.0 L736.7,258.0 L741.3,264.2 L745.5,270.8 L749.3,277.6 L752.9,284.6 L756.0,291.8 L758.8,299.3 L761.3,307.0 L763.3,314.8 L764.9,322.7 L766.1,330.8"/>
<path fill="none" stroke="white" stroke-width="20" stroke-linecap="round" opacity="0.65" d="M766.1,330.8 L766.9,339.0 L767.2,347.3 L767.1,355.6 L766.5,364.0 L765.5,372.3 L764.1,380.7 L762.2,389.0 L759.8,397.3 L757.0,405.4 L753.8,413.5 L750.1,421.4 L745.9,429.2 L741.4,436.7 L736.4,444.1 L731.0,451.2 L725.2,458.1 L719.0,464.7 L712.4,470.9 L705.5,476.9 L698.2,482.5 L690.6,487.8 L682.6,492.6 L674.4,497.1 L665.9,501.2 L657.2,504.8 L648.2,507.9 L639.1,510.6 L629.7,512.9 L620.2,514.6 L610.6,515.8 L600.9,516.6 L591.0,516.8 L581.2,516.5 L571.3,515.6 L561.4,514.3 L551.6,512.4 L541.8,510.0"/>
<path fill="none" stroke="white" stroke-width="20" stroke-linecap="round" opacity="0.74" d="M541.8,510.0 L532.1,507.0 L522.6,503.5 L513.2,499.6 L503.9,495.0 L494.9,490.0 L486.1,484.5 L477.6,478.5 L469.3,472.1 L461.4,465.1 L453.8,457.8 L446.6,450.0 L439.8,441.8 L433.3,433.2 L427.4,424.2 L421.8,414.9 L416.8,405.2 L412.2,395.3 L408.1,385.1 L404.6,374.6 L401.6,363.9 L399.2,353.0 L397.4,342.0 L396.1,330.8 L395.4,319.5 L395.3,308.2 L395.8,296.8 L396.9,285.4 L398.6,274.0 L401.0,262.7 L403.9,251.5 L407.4,240.4 L411.6,229.4 L416.3,218.7 L421.6,208.1 L427.5,197.8 L434.0,187.8 L441.0,178.1 L448.5,168.7"/>
<path fill="none" stroke="white" stroke-width="20" stroke-linecap="round" opacity="0.82" d="M448.5,168.7 L456.5,159.7 L465.1,151.1 L474.1,143.0 L483.6,135.3 L493.5,128.0 L503.8,121.3 L514.5,115.1 L525.6,109.5 L537.0,104.4 L548.7,99.9 L560.7,96.0 L572.9,92.7 L585.3,90.1 L597.9,88.1 L610.6,86.8 L623.4,86.2 L636.3,86.2 L649.2,86.9 L662.1,88.3 L675.0,90.4 L687.8,93.2 L700.5,96.6 L713.0,100.7 L725.4,105.5 L737.5,111.0 L749.4,117.1 L760.9,123.9 L772.2,131.3 L783.1,139.3 L793.6,147.9 L803.6,157.0 L813.2,166.7 L822.3,177.0 L830.9,187.8 L838.9,199.0 L846.4,210.7 L853.3,222.8"/>
<path fill="none" stroke="white" stroke-width="20" stroke-linecap="round" opacity="0.91" d="M853.3,222.8 L859.5,235.3 L865.1,248.1 L870.0,261.3 L874.3,274.8 L877.8,288.5 L880.6,302.4 L882.7,316.6 L884.1,330.8 L884.7,345.2 L884.5,359.6 L883.6,374.1 L882.0,388.5 L879.5,402.9 L876.3,417.2 L872.3,431.3 L867.6,445.3 L862.2,459.0 L856.0,472.5 L849.0,485.7 L841.4,498.5 L833.1,511.0 L824.1,523.0 L814.4,534.6 L804.1,545.8 L793.2,556.4 L781.7,566.4 L769.7,575.9 L757.2,584.7 L744.1,592.9 L730.6,600.4 L716.7,607.3 L702.4,613.4 L687.7,618.8 L672.8,623.4 L657.5,627.2 L642.1,630.2 L626.4,632.4 L610.6,633.8"/>
<circle cx="652.0" cy="346.7" r="14" fill="none" stroke="white" stroke-width="2" opacity="0.6"/>
<circle cx="652.0" cy="346.7" r="4.5" fill="white" opacity="0.85"/>
<line x1="652.0" y1="346.7" x2="778.2" y2="346.7" stroke="white" stroke-width="1.3" opacity="0.4"/>
<line x1="778.2" y1="346.7" x2="778.2" y2="207.4" stroke="white" stroke-width="1.3" opacity="0.4"/>
<rect x="750.2" y="196.4" width="56" height="22" rx="4" fill="none" stroke="white" stroke-width="1.2" opacity="0.5"/>
<text x="778.2" y="212.4" fill="white" opacity="0.7" font-size="13" font-family="monospace" text-anchor="middle">v2.0</text>
<circle cx="562.5" cy="222.9" r="19" fill="none" stroke="white" stroke-width="2" opacity="0.6"/>
<circle cx="562.5" cy="222.9" r="4.5" fill="white" opacity="0.85"/>
<line x1="562.5" y1="222.9" x2="476.0" y2="222.9" stroke="white" stroke-width="1.3" opacity="0.4"/>
<line x1="476.0" y1="222.9" x2="476.0" y2="69.7" stroke="white" stroke-width="1.3" opacity="0.4"/>
<rect x="448.0" y="58.7" width="56" height="22" rx="4" fill="none" stroke="white" stroke-width="1.2" opacity="0.5"/>
<text x="476.0" y="74.7" fill="white" opacity="0.7" font-size="13" font-family="monospace" text-anchor="middle">v4.0</text>
<circle cx="541.8" cy="510.0" r="24" fill="none" stroke="white" stroke-width="2" opacity="0.6"/>
<circle cx="541.8" cy="510.0" r="4.5" fill="white" opacity="0.85"/>
<line x1="541.8" y1="510.0" x2="498.0" y2="510.0" stroke="white" stroke-width="1.3" opacity="0.4"/>
<line x1="498.0" y1="510.0" x2="498.0" y2="576.9" stroke="white" stroke-width="1.3" opacity="0.4"/>
<rect x="470.0" y="565.9" width="56" height="22" rx="4" fill="none" stroke="white" stroke-width="1.2" opacity="0.5"/>
<text x="498.0" y="581.9" fill="white" opacity="0.7" font-size="13" font-family="monospace" text-anchor="middle">v6.0</text>

</svg>