<svg xmlns="http://www.w3.org/2000/svg" viewBox="0 0 1280 720">
  <defs><linearGradient id="gb" x1="0" y1="1" x2="1" y2="0">
      <stop offset="0%" stop-color="#2651CC"/>
      <stop offset="15%" stop-color="#2651CC"/>
      <stop offset="100%" stop-color="#4FC3F7"/>
    </linearGradient></defs>
  <rect x="0" y="0" width="1280" height="720" fill="url(#gb)"/>
  <line x1="0" y1="0" x2="0" y2="720" stroke="white" stroke-width="0.7" opacity="0.1"/>
<line x1="64" y1="0" x2="64" y2="720" stroke="white" stroke-width="0.7" opacity="0.1"/>
<line x1="128" y1="0" x2="128" y2="720" stroke="white" stroke-width="0.7" opacity="0.1"/>
<line x1="192" y1="0" x2="192" y2="720" stroke="white" stroke-width="0.7" opacity="0.1"/>
<line x1="256" y1="0" x2="256" y2="720" stroke="white" stroke-width="0.7" opacity="0.1"/>
<line x1="320" y1="0" x2="320" y2="720" stroke="white" stroke-width="0.7" opacity="0.1"/>
<line x1="384" y1="0" x2="384" y2="720" stroke="white" stroke-width="0.7" opacity="0.1"/>
<line x1="448" y1="0" x2="448" y2="720" stroke="white" stroke-width="0.7" opacity="0.1"/>
<line x1="512" y1="0" x2="512" y2="720" stroke="white" stroke-width="0.7" opacity="0.1"/>
<line x1="576" y1="0" x2="576" y2="720" stroke="white" stroke-width="0.7" opacity="0.1"/>
<line x1="640" y1="0" x2="640" y2="720" stroke="white" stroke-width="0.7" opacity="0.1"/>
<line x1="704" y1="0" x2="704" y2="720" stroke="white" stroke-width="0.7" opacity="0.1"/>
<line x1="768" y1="0" x2="768" y2="720" stroke="white" stroke-width="0.7" opacity="0.1"/>
<line x1="832" y1="0" x2="832" y2="720" stroke="white" stroke-width="0.7" opacity="0.1"/>
<line x1="896" y1="0" x2="896" y2="720" stroke="white" stroke-width="0.7" opacity="0.1"/>
<line x1="960" y1="0" x2="960" y2="720" stroke="white" stroke-width="0.7" opacity="0.1"/>
<line x1="1024" y1="0" x2="1024" y2="720" stroke="white" stroke-width="0.7" opacity="0.1"/>
<line x1="1088" y1="0" x2="1088" y2="720" stroke="white" stroke-width="0.7" opacity="0.1"/>
<line x1="1152" y1="0" x2="1152" y2="720" stroke="white" stroke-width="0.7" opacity="0.1"/>
<line x1="1216" y1="0" x2="1216" y2="720" stroke="white" stroke-width="0.7" opacity="0.1"/>
<line x1="1280" y1="0" x2="1280" y2="720" stroke="white" stroke-width="0.7" opacity="0.1"/>
<line x1="0" y1="0" x2="1280" y2="0" stroke="white" stroke-width="0.7" opacity="0.1"/>
<line x1="0" y1="64" x2="1280" y2="64" stroke="white" stroke-width="0.7" opacity="0.1"/>
<line x1="0" y1="128" x2="1280" y2="128" stroke="white" stroke-width="0.7" opacity="0.1"/>
<line x1="0" y1="192" x2="1280" y2="192" stroke="white" stroke-width="0.7" opacity="0.1"/>
<line x1="0" y1="256" x2="1280" y2="256" stroke="white" stroke-width="0.7" opacity="0.1"/>
<line x1="0" y1="320" x2="1280" y2="320" stroke="white" stroke-width="0.7" opacity="0.1"/>
<line x1="0" y1="384" x2="1280" y2="384" stroke="white" stroke-width="0.7" opacity="0.1"/>
<line x1="0" y1="448" x2="1280" y2="448" stroke="white" stroke-width="0.7" opacity="0.1"/>
<line x1="0" y1="512" x2="1280" y2="512" stroke="white" stroke-width="0.7" opacity="0.1"/>
<line x1="0" y1="576" x2="1280" y2="576" stroke="white" stroke-width="0.7" opacity="0.1"/>
<line x1="0" y1="640" x2="1280" y2="640" stroke="white" stroke-width="0.7" opacity="0.1"/>
<line x1="0" y1="704" x2="1280" y2="704" stroke="white" stroke-width="0.7" opacity="0.1"/>
<line x1="650.0" y1="360.0" x2="1340.0" y2="360.0" stroke="white" stroke-width="0.8" opacity="0.1" stroke-dasharray="6 8"/>
<line x1="648.7" y1="365.0" x2="1246.2" y2="710.0" stroke="white" stroke-width="0.8" opacity="0.1" stroke-dasharray="6 8"/>
<line x1="645.0" y1="368.7" x2="990.0" y2="966.2" stroke="white" stroke-width="0.8" opacity="0.1" stroke-dasharray="6 8"/>
<line x1="640.0" y1="370.0" x2="640.0" y2="1060.0" stroke="white" stroke-width="0.8" opacity="0.1" stroke-dasharray="6 8"/>
<line x1="635.0" y1="368.7" x2="290.0" y2="966.2" stroke="white" stroke-width="0.8" opacity="0.1" stroke-dasharray="6 8"/>
<line x1="631.3" y1="365.0" x2="33.8" y2="710.0" stroke="white" stroke-width="0.8" opacity="0.1" stroke-dasharray="6 8"/>
<line x1="630.0" y1="360.0" x2="-60.0" y2="360.0" stroke="white" stroke-width="0.8" opacity="0.1" stroke-dasharray="6 8"/>
<line x1="631.3" y1="355.0" x2="33.8" y2="10.0" stroke="white" stroke-width="0.8" opacity="0.1" stroke-dasharray="6 8"/>
<line x1="635.0" y1="351.3" x2="290.0" y2="-246.2" stroke="white" stroke-width="0.8" opacity="0.1" stroke-dasharray="6 8"/>
<line x1="640.0" y1="350.0" x2="640.0" y2="-340.0" stroke="white" stroke-width="0.8" opacity="0.1" stroke-dasharray="6 8"/>
<line x1="645.0" y1="351.3" x2="990.0" y2="-246.2" stroke="white" stroke-width="0.8" opacity="0.1" stroke-dasharray="6 8"/>
<line x1="648.7" y1="355.0" x2="1246.2" y2="10.0" stroke="white" stroke-width="0.8" opacity="0.1" stroke-dasharray="6 8"/>
<circle cx="640" cy="360" r="120" fill="none" stroke="white" stroke-width="0.8" opacity="0.1" stroke-dasharray="5 8"/>
<circle cx="640" cy="360" r="220" fill="none" stroke="white" stroke-width="0.8" opacity="0.1" stroke-dasharray="5 8"/>
<circle cx="640" cy="360" r="320" fill="none" stroke="white" stroke-width="0.8" opacity="0.1" stroke-dasharray="5 8"/>
<polyline points="90,20 40,20 40,70" fill="none" stroke="white" stroke-width="2" opacity="0.35" stroke-linecap="round"/>
<polyline points="1190,20 1240,20 1240,70" fill="none" stroke="white" stroke-width="2" opacity="0.35" stroke-linecap="round"/>
<polyline points="90,700 40,700 40,650" fill="none" stroke="white" stroke-width="2" opacity="0.35" stroke-linecap="round"/>
<polyline points="1190,700 1240,700 1240,650" fill="none" stroke="white" stroke-width="2" opacity="0.35" stroke-linecap="round"/>
<text x="1236" y="692" fill="white" opacity="0.3" font-size="13" font-family="monospace" text-anchor="end">AkashiContracts — Schema Management</text>
<text x="44" y="692" fill="white" opacity="0.25" font-size="13" font-family="monospace">v1.0</text>

</svg>